<svg width="1280" height="720" viewBox="0 0 1280 720" fill="none" xmlns="http://www.w3.org/2000/svg">
<path d="M0 0H1280V720H0V0Z" fill="white"/>
<path d="M-392 646C-392 579.726 -338.274 526 -272 526H153C219.274 526 273 579.726 273 646C273 712.274 219.274 766 153 766H-272C-338.274 766 -392 712.274 -392 646Z" fill="#F1DDBF" fill-opacity="0.1"/>
<path d="M898 646C898 617.833 920.833 595 949 595H1359C1387.17 595 1410 617.833 1410 646C1410 674.167 1387.17 697 1359 697H949C920.833 697 898 674.167 898 646Z" fill="#F1DDBF" fill-opacity="0.2"/>
<path d="M1076 152C1076 119.415 1102.42 93 1135 93H1407C1439.58 93 1466 119.415 1466 152C1466 184.585 1439.58 211 1407 211H1135C1102.42 211 1076 184.585 1076 152Z" fill="#F1DDBF" fill-opacity="0.1"/>
<path d="M-96 137C-96 39.7979 -17.2021 -39 80 -39H600C697.202 -39 776 39.7979 776 137C776 234.202 697.202 313 600 313H80C-17.2021 313 -96 234.202 -96 137Z" fill="#F1DDBF" fill-opacity="0.2"/>
</svg>
